# xmcd
#
# Track frame offsets:
#	150
#	19580
#	35700
#	52096
#	73916
#	88601
#	103732
#	117879
#	134558
#	153475
#	172955
#	190860
#
# Disc length: 2566 seconds
#
# Revision: 1
# Processed by: cddbd v1.5.1PL0 Copyright (c) Steve Scherf et al.
# Submitted via: audiograbber 1.83.01
#
DISCID=a80a040c
DTITLE=Moore and Moore - Meant To Be
DYEAR=2006
DGENRE=Country
TTITLE0=L.O.V.E
TTITLE1=Taking It Easy
TTITLE2=If You Don't Use It, You'll Lose It (feat. Jan Howard and Jeannie Seely
TTITLE2=)
TTITLE3=Mistake Child
TTITLE4=Beach House (feat.  Rich Alves and Bill Mc Corvey)
TTITLE5=Heartache, Here I Come
TTITLE6=Find Me A Man Like Goober (feat. George "Goober" Lindsey)
TTITLE7=I Can't Hurt Anymore
TTITLE8=Loving You For The Last Time Again (feat. Johnny Rodriguez)
TTITLE9=If It Was Meant To Be
TTITLE10=Bonus Christmas Track: Green, Red, White and Blue
TTITLE11=That was great!
EXTD=www.mooreandmooreonline.com
EXTT0=
EXTT1=
EXTT2=
EXTT3=
EXTT4=
EXTT5=
EXTT6=
EXTT7=
EXTT8=
EXTT9=
EXTT10=
EXTT11=
PLAYORDER=
